# xmcd
#
# Track frame offsets:
#	150
#	14260
#	30375
#	46103
#	64785
#	79631
#	92305
#	112343
#	129825
#	149290
#	165660
#	183505
#	207524
#	221195
#	239765
#	254450
#
# Disc length: 3663 seconds
#
# Revision: 0
# Processed by: cddbd v1.4PL0 Copyright (c) Steve Scherf et al.
# Submitted via: dBpowerAMP V4.0
#
DISCID=e00e4d10
DTITLE=Ann Rabson - Struttin' My Stuff
DYEAR=2000
DGENRE=Blues
TTITLE0=Beggin' For You Baby
TTITLE1=The Blues Don't Care
TTITLE2=Hassle Attack
TTITLE3=Let Me Go Home, Whiskey
TTITLE4=Struttin' My Stuff
TTITLE5=School Days
TTITLE6=Sportin' Life Blues
TTITLE7=Love Song (Ode to George)
TTITLE8=Pigalle Love
TTITLE9=Barnyard Boogie
TTITLE10=Not As Sorry As I Used to Be
TTITLE11=Late November Afternoon
TTITLE12=What's Good For The Gander Is Good For The Goose
TTITLE13=Check Mr. Popeye
TTITLE14=Baby, When I'm With You
TTITLE15=Careless Boogie
EXTD=
EXTT0=
EXTT1=
EXTT2=
EXTT3=
EXTT4=
EXTT5=
EXTT6=
EXTT7=
EXTT8=
EXTT9=
EXTT10=
EXTT11=
EXTT12=
EXTT13=
EXTT14=
EXTT15=
PLAYORDER=
